# xmcd CD database file
#
# Track frame offsets:
#	150
#	16158
#	28894
#	43101
#	60067
#	79907
#	93781
#	116216
#	127298
#	137744
#	150567
#	164800
#	186998
#	207661
#	220233
#	237306
#	258007
#	281284
#
# Disc length: 3981 seconds
#
# Revision: 5
# Processed by: cddbd v1.5.2PL0 Copyright (c) Steve Scherf et al.
# Submitted via: CDex 1.70beta3
#
DISCID=040f8b12
DTITLE=10-FEET - 10-FEET BEST 2001-2009
DYEAR=2010
DGENRE=J-Rock
TTITLE0=super stomper
TTITLE1=VIBES BY VIBES
TTITLE2=STONE COLD BREAK
TTITLE3=風
TTITLE4=RIVER
TTITLE5=MONKEY
TTITLE6=recollection
TTITLE7=back to the sunset
TTITLE8=SHOES
TTITLE9=JUST A FALSE! JUST A HOLE
TTITLE10=EVERY
TTITLE11=ライオン
TTITLE12=nil?
TTITLE13=BE FRIENDS AGAIN
TTITLE14=OVERCOME
TTITLE15=HEY!
TTITLE16=AND HUG
TTITLE17=BEAUTIFUL WORLD
EXTD=YEAR: 2010
EXTT0=
EXTT1=
EXTT2=
EXTT3=
EXTT4=
EXTT5=
EXTT6=
EXTT7=
EXTT8=
EXTT9=
EXTT10=
EXTT11=
EXTT12=
EXTT13=
EXTT14=
EXTT15=
EXTT16=
EXTT17=
PLAYORDER=
